<svg width="962" height="296" viewBox="0 0 962 296" fill="none" xmlns="http://www.w3.org/2000/svg">
<path d="M816.009 362.558L767.322 334.435L790.315 321.461C961.198 225.017 992.947 -6.55301 848.14 -137.302C791.843 -188.137 708.87 -223.345 587.056 -222.92C681.839 -143.325 759.794 41.8411 702.869 155.185C701.942 157.016 700.714 159.139 699.241 161.5C675.811 198.804 633.479 220.878 588.556 220.878H244.827V-8.99393H578.3C625.324 -8.99393 668.883 15.097 692.941 54.4172C690.622 41.337 687.513 28.4425 683.612 15.7603C639.753 -127.326 501.055 -223 347.574 -223H0.353516V902.562H331.727C391.707 902.562 451.25 891.657 506.811 869.609C511.993 867.539 516.275 865.735 519.167 864.25C621.096 813.043 658.982 730.608 693.077 629.151L681.539 640.798C651.291 671.31 609.586 688.529 565.999 688.529H244.827V434.884H568.999C601.539 434.884 633.807 444.011 659.773 463.088C659.801 463.088 659.828 463.141 659.882 463.167C761.457 539.977 751.202 695.905 737.864 775.872C731.1 816.439 727.308 857.431 727.308 898.502V902.562H961.907V611.799C961.907 509.492 906.456 414.773 816.036 362.585L816.009 362.558Z" fill="white" fill-opacity="0.1"/>
</svg>
