<svg width="20" height="16" viewBox="0 0 20 16" fill="none" xmlns="http://www.w3.org/2000/svg">
<path d="M0.699219 4.73226C0.750748 3.99168 1.67828 2.95488 2.42545 2.95488H5.27889V2.06619C5.27889 1.35781 6.07115 0.552836 6.75391 0.456239L13.1049 0.443359C13.8456 0.462679 14.7216 1.31917 14.7216 2.05975V2.94844H17.5751C18.3544 2.94844 19.3335 4.06896 19.3013 4.85462V13.6836C19.2047 14.6624 18.4511 15.4545 17.4656 15.5575H2.4963C1.61386 15.4738 0.789395 14.656 0.699219 13.7737V4.73226ZM9.48496 4.7387C7.55262 4.91257 5.89724 6.50964 5.54297 8.39006C4.828 12.1831 8.87949 15.1132 12.2418 13.2006C16.4736 10.7985 14.464 4.28791 9.48496 4.7387Z" fill="white"/>
<path d="M9.70465 6.26507C12.3198 6.02036 13.9816 9.01486 12.3648 11.1014C11.0508 12.795 8.37777 12.5696 7.3665 10.6828C6.36168 8.80879 7.57906 6.45827 9.70465 6.25863V6.26507Z" fill="white"/>
</svg>
