<svg width="917" height="829" viewBox="0 0 917 829" fill="none" xmlns="http://www.w3.org/2000/svg">
<g clip-path="url(#clip0_569_2111)">
<g clip-path="url(#clip1_569_2111)">
<path d="M571.267 780.451C570.184 780.451 569.136 779.854 568.615 778.819C567.881 777.358 568.479 775.584 569.941 774.85L585.292 767.18C586.755 766.447 588.531 767.044 589.265 768.505C589.999 769.965 589.401 771.74 587.939 772.473L572.587 780.143C572.161 780.356 571.711 780.457 571.267 780.457V780.451ZM612.206 760C611.123 760 610.075 759.403 609.554 758.368C608.82 756.907 609.418 755.133 610.88 754.4L626.232 746.729C627.694 745.996 629.47 746.593 630.204 748.054C630.938 749.515 630.34 751.289 628.878 752.022L613.527 759.693C613.1 759.906 612.65 760.006 612.206 760.006V760ZM653.152 739.544C652.068 739.544 651.02 738.946 650.499 737.911C649.765 736.45 650.363 734.676 651.826 733.943L667.177 726.272C668.639 725.539 670.415 726.136 671.15 727.597C671.884 729.058 671.286 730.832 669.823 731.565L654.472 739.236C654.046 739.449 653.596 739.549 653.152 739.549V739.544ZM694.091 719.093C693.008 719.093 691.96 718.495 691.439 717.46C690.705 716 691.302 714.226 692.765 713.492L708.116 705.822C709.579 705.088 711.355 705.686 712.089 707.146C712.823 708.607 712.225 710.381 710.763 711.115L695.411 718.785C694.985 718.998 694.535 719.099 694.091 719.099V719.093ZM735.036 698.636C733.953 698.636 732.905 698.039 732.384 697.004C731.65 695.543 732.248 693.769 733.71 693.035L749.062 685.365C750.524 684.632 752.3 685.229 753.034 686.69C753.768 688.15 753.17 689.925 751.708 690.658L736.356 698.329C735.93 698.541 735.48 698.642 735.036 698.642V698.636ZM775.981 678.185C774.898 678.185 773.85 677.588 773.329 676.553C772.595 675.092 773.193 673.318 774.655 672.585L790.007 664.914C791.469 664.181 793.245 664.778 793.979 666.239C794.713 667.7 794.116 669.474 792.653 670.207L777.302 677.878C776.875 678.091 776.425 678.191 775.981 678.191V678.185ZM816.921 657.729C815.837 657.729 814.789 657.131 814.268 656.096C813.534 654.636 814.132 652.861 815.595 652.128L830.946 644.457C832.408 643.724 834.185 644.316 834.919 645.782C835.653 647.243 835.055 649.017 833.593 649.751L818.241 657.421C817.815 657.634 817.365 657.735 816.921 657.735V657.729ZM857.866 637.278C856.783 637.278 855.735 636.68 855.214 635.646C854.48 634.185 855.078 632.411 856.54 631.677L871.891 624.007C873.354 623.273 875.13 623.871 875.864 625.331C876.598 626.792 876 628.566 874.538 629.3L859.186 636.97C858.76 637.183 858.31 637.284 857.866 637.284V637.278ZM898.805 616.821C897.722 616.821 896.674 616.224 896.153 615.189C895.419 613.728 896.017 611.954 897.479 611.221L912.831 603.55C914.293 602.817 916.069 603.414 916.803 604.875C917.537 606.336 916.939 608.11 915.477 608.843L900.126 616.514C899.699 616.726 899.249 616.827 898.805 616.827V616.821ZM939.751 596.364C938.667 596.364 937.619 595.767 937.098 594.732C936.364 593.271 936.962 591.497 938.424 590.764L953.776 583.093C955.238 582.36 957.014 582.957 957.748 584.418C958.483 585.879 957.885 587.653 956.422 588.386L941.071 596.057C940.645 596.27 940.195 596.37 939.751 596.37V596.364ZM980.696 575.914C979.612 575.914 978.564 575.316 978.043 574.281C977.309 572.821 977.907 571.046 979.37 570.313L994.721 562.643C996.183 561.909 997.96 562.506 998.694 563.967C999.428 565.428 998.83 567.202 997.368 567.936L982.016 575.606C981.59 575.819 981.14 575.92 980.696 575.92V575.914ZM1021.64 555.457C1020.55 555.457 1019.5 554.86 1018.98 553.825C1018.25 552.364 1018.85 550.59 1020.31 549.856L1035.66 542.186C1037.12 541.452 1038.9 542.044 1039.63 543.511C1040.37 544.971 1039.77 546.746 1038.31 547.479L1022.96 555.149C1022.53 555.362 1022.08 555.463 1021.64 555.463V555.457Z" fill="#AACFEA"/>
<path d="M537.729 797.205C537.273 797.205 536.823 797.099 536.403 796.892L528.458 792.924C526.996 792.196 526.404 790.416 527.132 788.955C527.86 787.495 529.642 786.903 531.104 787.631L537.723 790.937L544.342 787.631C545.805 786.897 547.581 787.495 548.315 788.955C549.049 790.416 548.451 792.19 546.989 792.924L539.043 796.892C538.629 797.099 538.173 797.205 537.717 797.205H537.729Z" fill="#AACFEA"/>
<path d="M504.102 780.403C503.658 780.403 503.208 780.303 502.782 780.09L487.371 772.39C485.909 771.657 485.317 769.882 486.045 768.422C486.773 766.961 488.555 766.369 490.017 767.097L505.428 774.797C506.891 775.53 507.483 777.304 506.754 778.765C506.233 779.8 505.191 780.397 504.102 780.397V780.403ZM462.997 759.87C462.553 759.87 462.103 759.769 461.677 759.556L446.266 751.856C444.804 751.123 444.212 749.349 444.94 747.888C445.674 746.427 447.45 745.836 448.912 746.563L464.323 754.263C465.785 754.997 466.377 756.771 465.649 758.232C465.128 759.267 464.086 759.864 462.997 759.864V759.87ZM421.898 739.336C421.454 739.336 421.004 739.236 420.578 739.023L405.167 731.323C403.704 730.589 403.112 728.815 403.841 727.354C404.569 725.894 406.351 725.302 407.813 726.03L423.224 733.73C424.686 734.463 425.278 736.237 424.55 737.698C424.029 738.733 422.987 739.33 421.898 739.33V739.336ZM380.799 718.809C380.355 718.809 379.905 718.708 379.478 718.495L364.068 710.795C362.605 710.068 362.013 708.288 362.742 706.827C363.47 705.366 365.252 704.775 366.714 705.502L382.125 713.202C383.587 713.935 384.179 715.71 383.451 717.17C382.93 718.205 381.888 718.803 380.799 718.803V718.809ZM339.699 698.275C339.255 698.275 338.805 698.175 338.379 697.962L322.969 690.262C321.506 689.528 320.914 687.754 321.642 686.293C322.376 684.832 324.153 684.241 325.615 684.968L341.026 692.668C342.488 693.402 343.08 695.176 342.352 696.637C341.831 697.672 340.789 698.269 339.699 698.269V698.275ZM298.6 677.741C298.156 677.741 297.706 677.641 297.28 677.428L281.869 669.728C280.407 668.995 279.815 667.22 280.543 665.76C281.271 664.299 283.053 663.707 284.516 664.435L299.926 672.135C301.389 672.868 301.981 674.643 301.253 676.103C300.732 677.138 299.69 677.736 298.6 677.736V677.741ZM257.501 657.208C257.057 657.208 256.607 657.107 256.181 656.894L240.77 649.194C239.308 648.461 238.716 646.687 239.444 645.226C240.172 643.765 241.954 643.174 243.417 643.901L258.827 651.601C260.29 652.335 260.882 654.109 260.153 655.57C259.632 656.605 258.59 657.202 257.501 657.202V657.208ZM216.402 636.674C215.958 636.674 215.508 636.574 215.082 636.361L199.671 628.661C198.209 627.933 197.617 626.153 198.345 624.692C199.073 623.232 200.855 622.64 202.317 623.368L217.728 631.068C219.19 631.795 219.783 633.575 219.054 635.036C218.533 636.071 217.491 636.668 216.402 636.668V636.674ZM175.303 616.147C174.859 616.147 174.409 616.046 173.983 615.833L158.572 608.133C157.11 607.4 156.517 605.626 157.246 604.165C157.974 602.704 159.756 602.113 161.218 602.84L176.629 610.54C178.091 611.273 178.683 613.048 177.955 614.508C177.434 615.543 176.392 616.141 175.303 616.141V616.147ZM134.204 595.613C133.76 595.613 133.31 595.513 132.883 595.3L117.473 587.6C116.01 586.866 115.418 585.092 116.147 583.631C116.875 582.17 118.657 581.579 120.119 582.306L135.53 590.007C136.992 590.74 137.584 592.514 136.856 593.975C136.335 595.01 135.293 595.607 134.204 595.607V595.613ZM93.0985 575.08C92.6545 575.08 92.2046 574.979 91.7783 574.766L76.3676 567.066C74.9053 566.333 74.3132 564.558 75.0414 563.098C75.7696 561.637 77.5517 561.045 79.014 561.773L94.4247 569.473C95.887 570.206 96.4791 571.981 95.7509 573.441C95.2299 574.476 94.1879 575.074 93.0985 575.074V575.08ZM51.9994 554.546C51.5554 554.546 51.1054 554.445 50.6791 554.232L35.2684 546.532C33.8061 545.799 33.2141 544.025 33.9423 542.564C34.6764 541.103 36.4525 540.512 37.9148 541.239L53.3255 548.939C54.7879 549.667 55.3799 551.447 54.6517 552.908C54.1307 553.943 53.0887 554.54 51.9994 554.54V554.546Z" fill="#AACFEA"/>
<path d="M10.8994 534.013C10.4554 534.013 10.0054 533.912 9.57915 533.699L1.63402 529.731C0.633479 529.228 0 528.205 0 527.087C0 525.969 0.633479 524.946 1.63402 524.444L9.57915 520.475C11.0415 519.742 12.8176 520.339 13.5517 521.8C14.2858 523.261 13.6879 525.035 12.2256 525.768L9.57915 527.093L12.2256 528.418C13.6879 529.145 14.2799 530.925 13.5517 532.386C13.0307 533.421 11.9887 534.018 10.8994 534.018V534.013Z" fill="#AACFEA"/>
<path d="M36.4937 513.296C35.4103 513.296 34.3623 512.698 33.8414 511.663C33.1072 510.203 33.7052 508.428 35.1675 507.695L50.519 500.025C51.9814 499.291 53.7575 499.883 54.4916 501.349C55.2257 502.81 54.6278 504.584 53.1654 505.318L37.8139 512.988C37.3877 513.201 36.9377 513.302 36.4937 513.302V513.296ZM77.4389 492.839C76.3555 492.839 75.3076 492.242 74.7866 491.207C74.0525 489.746 74.6504 487.972 76.1128 487.238L91.4643 479.568C92.9266 478.834 94.7027 479.432 95.4368 480.893C96.1709 482.353 95.573 484.128 94.1107 484.861L78.7592 492.531C78.3329 492.744 77.8829 492.845 77.4389 492.845V492.839ZM118.378 472.388C117.295 472.388 116.247 471.791 115.726 470.756C114.992 469.295 115.59 467.521 117.052 466.788L132.404 459.117C133.866 458.384 135.642 458.981 136.376 460.442C137.11 461.903 136.512 463.677 135.05 464.41L119.698 472.081C119.272 472.294 118.822 472.394 118.378 472.394V472.388ZM159.323 451.931C158.24 451.931 157.192 451.334 156.671 450.299C155.937 448.838 156.535 447.064 157.997 446.331L173.349 438.66C174.811 437.927 176.587 438.524 177.321 439.985C178.055 441.446 177.458 443.22 175.995 443.953L160.644 451.624C160.217 451.837 159.767 451.937 159.323 451.937V451.931ZM200.269 431.481C199.185 431.481 198.137 430.883 197.616 429.848C196.882 428.388 197.48 426.613 198.943 425.88L214.294 418.21C215.756 417.476 217.532 418.068 218.267 419.534C219.001 420.995 218.403 422.769 216.94 423.503L201.589 431.173C201.163 431.386 200.713 431.487 200.269 431.487V431.481ZM241.208 411.024C240.125 411.024 239.077 410.427 238.556 409.392C237.822 407.931 238.42 406.157 239.882 405.423L255.233 397.753C256.696 397.02 258.472 397.617 259.206 399.078C259.94 400.538 259.342 402.313 257.88 403.046L242.528 410.716C242.102 410.929 241.652 411.03 241.208 411.03V411.024ZM282.153 390.573C281.07 390.573 280.022 389.976 279.501 388.941C278.767 387.48 279.365 385.706 280.827 384.973L296.179 377.302C297.641 376.575 299.417 377.166 300.151 378.627C300.885 380.088 300.287 381.862 298.825 382.595L283.473 390.266C283.047 390.479 282.597 390.579 282.153 390.579V390.573ZM323.093 370.117C322.009 370.117 320.961 369.519 320.44 368.484C319.706 367.023 320.304 365.249 321.766 364.516L337.118 356.845C338.58 356.112 340.356 356.709 341.09 358.17C341.825 359.631 341.227 361.405 339.764 362.138L324.413 369.809C323.987 370.022 323.537 370.122 323.093 370.122V370.117ZM364.038 349.666C362.954 349.666 361.906 349.068 361.385 348.033C360.651 346.573 361.249 344.798 362.712 344.065L378.063 336.395C379.525 335.667 381.302 336.259 382.036 337.719C382.77 339.18 382.172 340.954 380.71 341.688L365.358 349.358C364.932 349.571 364.482 349.672 364.038 349.672V349.666ZM404.983 329.209C403.9 329.209 402.852 328.612 402.331 327.577C401.597 326.116 402.195 324.342 403.657 323.608L419.008 315.938C420.471 315.205 422.247 315.802 422.981 317.263C423.715 318.723 423.117 320.498 421.655 321.231L406.303 328.902C405.877 329.114 405.427 329.215 404.983 329.215V329.209ZM445.922 308.752C444.839 308.752 443.791 308.155 443.27 307.12C442.536 305.659 443.134 303.885 444.596 303.152L459.948 295.481C461.41 294.748 463.186 295.345 463.92 296.806C464.654 298.267 464.056 300.041 462.594 300.774L447.243 308.445C446.816 308.658 446.366 308.758 445.922 308.758V308.752ZM486.868 288.302C485.784 288.302 484.736 287.704 484.215 286.669C483.481 285.209 484.079 283.434 485.541 282.701L500.893 275.03C502.355 274.297 504.131 274.894 504.866 276.355C505.6 277.816 505.002 279.59 503.539 280.324L488.188 287.994C487.762 288.207 487.312 288.308 486.868 288.308V288.302Z" fill="#AACFEA"/>
<path d="M527.806 267.845C526.723 267.845 525.675 267.247 525.154 266.212C524.42 264.752 525.018 262.977 526.48 262.244L534.425 258.276C535.26 257.862 536.237 257.862 537.072 258.276L545.017 262.244C546.479 262.977 547.071 264.752 546.343 266.212C545.609 267.673 543.833 268.265 542.37 267.537L535.751 264.231L529.132 267.537C528.706 267.75 528.256 267.851 527.812 267.851L527.806 267.845Z" fill="#AACFEA"/>
<path d="M1036.89 514.236C1036.44 514.236 1035.99 514.135 1035.57 513.922L1020.16 506.222C1018.69 505.489 1018.1 503.715 1018.83 502.254C1019.56 500.793 1021.34 500.202 1022.8 500.929L1038.21 508.629C1039.68 509.363 1040.27 511.137 1039.54 512.598C1039.02 513.633 1037.98 514.23 1036.89 514.23V514.236ZM995.788 493.702C995.344 493.702 994.894 493.602 994.468 493.389L979.057 485.689C977.595 484.955 977.003 483.181 977.731 481.72C978.459 480.26 980.241 479.668 981.703 480.396L997.114 488.096C998.576 488.829 999.168 490.603 998.44 492.064C997.919 493.099 996.877 493.696 995.788 493.696V493.702ZM954.689 473.169C954.245 473.169 953.795 473.068 953.369 472.855L937.958 465.155C936.496 464.422 935.904 462.648 936.632 461.187C937.366 459.726 939.142 459.135 940.604 459.862L956.015 467.562C957.477 468.29 958.069 470.07 957.341 471.531C956.82 472.566 955.778 473.163 954.689 473.163V473.169ZM913.59 452.641C913.146 452.641 912.696 452.541 912.269 452.328L896.859 444.628C895.396 443.894 894.804 442.12 895.533 440.659C896.267 439.198 898.043 438.607 899.505 439.335L914.916 447.035C916.378 447.768 916.97 449.542 916.242 451.003C915.721 452.038 914.679 452.635 913.59 452.635V452.641ZM872.49 432.108C872.046 432.108 871.596 432.007 871.17 431.794L855.759 424.094C854.297 423.361 853.705 421.586 854.433 420.126C855.162 418.665 856.944 418.074 858.406 418.801L873.817 426.501C875.279 427.234 875.871 429.009 875.143 430.469C874.622 431.504 873.58 432.102 872.49 432.102V432.108ZM831.391 411.574C830.947 411.574 830.497 411.473 830.071 411.261L814.66 403.56C813.198 402.827 812.606 401.053 813.334 399.592C814.062 398.131 815.844 397.54 817.307 398.267L832.717 405.967C834.18 406.701 834.772 408.475 834.044 409.936C833.523 410.971 832.481 411.568 831.391 411.568V411.574ZM790.292 391.04C789.848 391.04 789.398 390.94 788.972 390.727L773.561 383.027C772.099 382.294 771.507 380.519 772.235 379.059C772.963 377.598 774.745 377.006 776.208 377.734L791.618 385.434C793.081 386.167 793.673 387.941 792.944 389.402C792.423 390.437 791.381 391.034 790.292 391.034V391.04ZM749.187 370.507C748.743 370.507 748.293 370.406 747.867 370.193L732.456 362.493C730.994 361.766 730.402 359.986 731.13 358.525C731.858 357.064 733.64 356.473 735.103 357.2L750.513 364.9C751.976 365.628 752.568 367.408 751.839 368.869C751.318 369.904 750.276 370.501 749.187 370.501V370.507ZM708.088 349.979C707.644 349.979 707.194 349.879 706.768 349.666L691.357 341.966C689.895 341.238 689.303 339.458 690.031 337.997C690.759 336.537 692.541 335.945 694.003 336.673L709.414 344.373C710.876 345.106 711.468 346.88 710.74 348.341C710.219 349.376 709.177 349.973 708.088 349.973V349.979ZM666.989 329.446C666.545 329.446 666.095 329.345 665.668 329.132L650.258 321.432C648.795 320.699 648.203 318.924 648.932 317.464C649.666 316.003 651.442 315.412 652.904 316.139L668.315 323.839C669.777 324.572 670.369 326.347 669.641 327.807C669.12 328.842 668.078 329.44 666.989 329.44V329.446ZM625.89 308.912C625.446 308.912 624.996 308.811 624.569 308.599L609.159 300.898C607.696 300.171 607.104 298.391 607.832 296.93C608.567 295.469 610.343 294.878 611.805 295.605L627.216 303.305C628.678 304.033 629.27 305.813 628.542 307.274C628.021 308.309 626.979 308.906 625.89 308.906V308.912ZM584.79 288.378C584.346 288.378 583.896 288.278 583.47 288.065L568.059 280.365C566.597 279.632 566.005 277.857 566.733 276.397C567.467 274.936 569.244 274.344 570.706 275.072L586.117 282.772C587.579 283.505 588.171 285.279 587.443 286.74C586.922 287.775 585.88 288.373 584.79 288.373V288.378Z" fill="#AACFEA"/>
<g opacity="0.1">
<path d="M1001.84 528.016L537.605 759.935L71.6367 527.152L535.876 295.233L1001.84 528.016Z" fill="#AACFEA"/>
</g>
<g opacity="0.7">
<path d="M726.582 819.75C722.337 821.873 722.337 825.309 726.582 827.432C730.827 829.555 737.712 829.555 741.963 827.432C746.208 825.309 746.208 821.873 741.963 819.75C737.718 817.626 730.833 817.626 726.582 819.75Z" fill="#AACFEA"/>
</g>
<g opacity="0.8">
<path d="M695.619 804.278C691.09 806.538 691.09 810.21 695.619 812.469C700.149 814.729 707.49 814.729 712.019 812.469C716.548 810.204 716.548 806.538 712.019 804.278C707.49 802.013 700.149 802.013 695.619 804.278Z" fill="#AACFEA"/>
</g>
<g opacity="0.9">
<path d="M664.648 788.807C659.841 791.208 659.841 795.106 664.648 797.507C669.462 799.908 677.259 799.908 682.066 797.507C686.873 795.106 686.873 791.208 682.066 788.807C677.253 786.406 669.456 786.406 664.648 788.807Z" fill="#AACFEA"/>
</g>
<path d="M633.686 773.342C628.594 775.885 628.594 780.013 633.686 782.556C638.777 785.099 647.036 785.099 652.128 782.556C657.219 780.013 657.219 775.885 652.128 773.342C647.036 770.799 638.777 770.799 633.686 773.342Z" fill="#AACFEA"/>
<g opacity="0.1">
<path d="M204.265 132.413C201.909 133.59 198.084 133.59 195.728 132.413C193.372 131.236 193.372 129.326 195.728 128.149C198.084 126.972 201.909 126.972 204.265 128.149C206.622 129.326 206.622 131.236 204.265 132.413Z" fill="#AACFEA"/>
</g>
<g opacity="0.1">
<path d="M232.814 146.672C230.197 147.979 225.952 147.979 223.336 146.672C220.719 145.364 220.719 143.241 223.336 141.934C225.952 140.627 230.197 140.627 232.814 141.934C235.431 143.241 235.431 145.359 232.814 146.672Z" fill="#AACFEA"/>
</g>
<g opacity="0.3">
<path d="M261.367 160.936C258.49 162.374 253.824 162.374 250.947 160.936C248.07 159.499 248.07 157.169 250.947 155.732C253.824 154.295 258.49 154.295 261.367 155.732C264.244 157.169 264.244 159.499 261.367 160.936Z" fill="#AACFEA"/>
</g>
<g opacity="0.4">
<path d="M289.916 175.195C286.778 176.762 281.692 176.762 278.56 175.195C275.423 173.628 275.423 171.091 278.56 169.524C281.698 167.956 286.784 167.956 289.916 169.524C293.053 171.091 293.053 173.628 289.916 175.195Z" fill="#AACFEA"/>
</g>
<g opacity="0.5">
<path d="M318.462 189.46C315.064 191.157 309.558 191.157 306.166 189.46C302.768 187.762 302.768 185.012 306.166 183.315C309.564 181.618 315.07 181.618 318.462 183.315C321.861 185.012 321.861 187.762 318.462 189.46Z" fill="#AACFEA"/>
</g>
<g opacity="0.6">
<path d="M347.011 203.724C343.353 205.552 337.426 205.552 333.773 203.724C330.115 201.897 330.115 198.934 333.773 197.112C337.432 195.285 343.358 195.285 347.011 197.112C350.664 198.94 350.664 201.903 347.011 203.724Z" fill="#AACFEA"/>
</g>
<g opacity="0.7">
<path d="M375.56 217.983C371.646 219.941 365.294 219.941 361.38 217.983C357.467 216.026 357.467 212.856 361.38 210.898C365.294 208.941 371.646 208.941 375.56 210.898C379.473 212.856 379.473 216.026 375.56 217.983Z" fill="#AACFEA"/>
</g>
<g opacity="0.8">
<path d="M404.106 232.248C399.933 234.336 393.16 234.336 388.986 232.248C384.812 230.16 384.812 226.777 388.986 224.696C393.16 222.608 399.933 222.608 404.106 224.696C408.28 226.783 408.28 230.166 404.106 232.248Z" fill="#AACFEA"/>
</g>
<g opacity="0.9">
<path d="M432.655 246.507C428.221 248.724 421.028 248.724 416.593 246.507C412.159 244.289 412.159 240.699 416.593 238.481C421.028 236.263 428.221 236.263 432.655 238.481C437.09 240.699 437.09 244.289 432.655 246.507Z" fill="#AACFEA"/>
</g>
<path d="M461.204 260.772C456.509 263.119 448.896 263.119 444.201 260.772C439.506 258.424 439.506 254.621 444.201 252.279C448.896 249.931 456.509 249.931 461.204 252.279C465.899 254.627 465.899 258.43 461.204 260.772Z" fill="#AACFEA"/>
<path d="M825.961 541.009L535.349 686.187L243.658 540.471L534.271 395.287L825.961 541.009Z" fill="#F3F6F8"/>
<path d="M535.348 688.257C535.029 688.257 534.715 688.186 534.419 688.038L242.729 542.316C242.024 541.967 241.586 541.251 241.586 540.465C241.586 539.678 242.03 538.963 242.729 538.614L533.336 393.43C533.922 393.14 534.608 393.14 535.189 393.43L826.879 539.152C827.584 539.501 828.022 540.222 828.022 541.003C828.022 541.784 827.578 542.505 826.879 542.854L536.272 688.038C535.982 688.186 535.662 688.257 535.343 688.257H535.348ZM248.294 540.471L535.348 683.88L821.326 541.015L534.265 397.605L248.288 540.471H248.294Z" fill="#AACFEA"/>
<path d="M825.961 476.309L535.349 621.487L243.658 475.771L534.271 330.587L825.961 476.309Z" fill="#F3F6F8"/>
<path d="M535.348 623.557C535.029 623.557 534.715 623.486 534.419 623.338L242.729 477.616C242.024 477.267 241.586 476.552 241.586 475.765C241.586 474.978 242.03 474.263 242.729 473.914L533.336 328.736C533.922 328.446 534.608 328.446 535.189 328.736L826.879 474.458C827.584 474.807 828.022 475.528 828.022 476.309C828.022 477.09 827.578 477.811 826.879 478.16L536.272 623.344C535.982 623.492 535.662 623.563 535.343 623.563L535.348 623.557ZM248.294 475.771L535.348 619.181L821.326 476.315L534.265 332.911L248.288 475.777L248.294 475.771Z" fill="#AACFEA"/>
<path d="M778.415 473.896L535.266 595.371L291.205 473.447L534.36 351.972L778.415 473.896Z" fill="#F3F6F8"/>
<path d="M535.26 597.441C534.94 597.441 534.627 597.37 534.331 597.222L290.275 475.298C289.571 474.949 289.133 474.233 289.133 473.447C289.133 472.66 289.577 471.945 290.275 471.596L533.431 350.121C534.011 349.831 534.704 349.831 535.284 350.121L779.339 472.045C780.043 472.394 780.482 473.11 780.482 473.896C780.482 474.683 780.038 475.398 779.339 475.747L536.184 597.222C535.894 597.37 535.574 597.441 535.254 597.441H535.26ZM295.841 473.447L535.266 593.058L773.786 473.902L534.36 354.291L295.841 473.447Z" fill="#AACFEA"/>
<path d="M825.961 476.309V541.009L535.348 686.187V621.487L825.961 476.309Z" fill="#F3F6F8"/>
<path d="M535.348 688.257C534.969 688.257 534.59 688.15 534.258 687.949C533.648 687.571 533.275 686.908 533.275 686.187V621.487C533.275 620.701 533.719 619.985 534.418 619.636L825.025 474.452C825.664 474.133 826.428 474.168 827.044 474.541C827.654 474.919 828.027 475.582 828.027 476.303V541.003C828.027 541.789 827.583 542.505 826.884 542.854L536.277 688.038C535.987 688.186 535.667 688.257 535.348 688.257ZM537.42 622.77V682.839L823.882 539.731V479.662L537.42 622.77Z" fill="#AACFEA"/>
<path d="M535.349 621.487L243.658 475.771V540.471L535.349 686.187V621.487Z" fill="#F3F6F8"/>
<path d="M535.348 688.257C535.029 688.257 534.715 688.186 534.419 688.038L242.729 542.316C242.024 541.967 241.586 541.245 241.586 540.465V475.765C241.586 475.05 241.959 474.381 242.569 474.003C243.179 473.624 243.942 473.589 244.588 473.914L536.278 619.636C536.982 619.985 537.421 620.707 537.421 621.487V686.187C537.421 686.903 537.048 687.571 536.438 687.949C536.106 688.156 535.727 688.257 535.348 688.257ZM245.73 539.187L533.276 682.84V622.771L245.73 479.118V539.187Z" fill="#AACFEA"/>
<path d="M535.349 621.487L535.266 595.371L778.415 473.896L825.961 476.309L535.349 621.487Z" fill="#AACFEA"/>
<path d="M535.348 623.557C534.97 623.557 534.597 623.456 534.265 623.25C533.655 622.877 533.282 622.209 533.276 621.493L533.188 595.377C533.188 594.59 533.632 593.869 534.33 593.52L777.485 472.045C777.805 471.885 778.16 471.808 778.516 471.826L826.062 474.233C827.003 474.281 827.791 474.955 827.986 475.877C828.181 476.8 827.726 477.734 826.885 478.154L536.278 623.338C535.988 623.486 535.668 623.557 535.348 623.557ZM537.338 596.648L537.409 618.146L817.987 477.977L778.853 475.996L537.338 596.648Z" fill="#AACFEA"/>
<path d="M535.349 621.487L535.266 595.37L291.205 473.446L243.658 475.771L535.349 621.487Z" fill="#AACFEA"/>
<path d="M535.348 623.557C535.028 623.557 534.715 623.486 534.418 623.338L242.728 477.616C241.887 477.196 241.432 476.262 241.627 475.339C241.822 474.416 242.61 473.742 243.551 473.695L291.097 471.371C291.453 471.347 291.808 471.43 292.128 471.59L536.183 593.514C536.881 593.862 537.325 594.578 537.325 595.359L537.414 621.475C537.414 622.191 537.047 622.865 536.431 623.243C536.1 623.45 535.721 623.557 535.342 623.557H535.348ZM251.662 477.45L533.27 618.134L533.199 596.654L290.766 475.54L251.662 477.45Z" fill="#AACFEA"/>
<path d="M825.962 476.309L778.415 473.896L534.36 351.972L534.271 330.587L825.962 476.309Z" fill="#F3F6F8"/>
<path d="M825.962 478.379C825.926 478.379 825.891 478.379 825.855 478.379L778.309 475.972C778.025 475.96 777.74 475.883 777.486 475.753L533.431 353.829C532.732 353.48 532.288 352.764 532.288 351.984L532.199 330.599C532.199 329.877 532.566 329.209 533.176 328.83C533.786 328.452 534.55 328.416 535.195 328.736L826.755 474.393C827.513 474.7 828.04 475.445 828.04 476.309C828.04 477.45 827.11 478.379 825.968 478.379C825.968 478.379 825.962 478.379 825.956 478.379H825.962ZM778.954 471.856L816.187 473.742L536.355 333.946L536.426 350.695L778.954 471.856Z" fill="#AACFEA"/>
<path d="M622.898 424.342C671.546 448.643 671.546 488.048 622.898 512.355C574.251 536.656 495.374 536.656 446.726 512.355C398.078 488.054 398.078 448.649 446.726 424.342C495.374 400.041 574.251 400.041 622.898 424.342Z" fill="#AACFEA"/>
<path d="M534.809 532.652C501.216 532.652 469.608 526.1 445.796 514.206C421.528 502.083 408.166 485.795 408.166 468.349C408.166 450.902 421.528 434.615 445.796 422.491C469.608 410.598 501.216 404.045 534.809 404.045C568.401 404.045 600.009 410.598 623.821 422.491C648.089 434.615 661.451 450.902 661.451 468.349C661.451 485.795 648.089 502.083 623.821 514.206C600.009 526.1 568.401 532.652 534.809 532.652ZM534.809 408.185C501.85 408.185 470.898 414.578 447.649 426.194C424.861 437.578 412.31 452.552 412.31 468.349C412.31 484.145 424.861 499.12 447.649 510.504C470.898 522.119 501.85 528.512 534.809 528.512C567.767 528.512 598.719 522.119 621.968 510.504C644.756 499.12 657.307 484.145 657.307 468.349C657.307 452.552 644.756 437.578 621.968 426.194C598.719 414.578 567.767 408.185 534.809 408.185Z" fill="#AACFEA"/>
<path d="M622.897 447.407C574.249 423.106 495.372 423.106 446.725 447.407C428.301 456.61 416.857 467.982 412.393 479.881C416.862 491.78 428.301 503.147 446.725 512.355C495.372 536.656 574.249 536.656 622.897 512.355C641.321 503.153 652.765 491.78 657.229 479.881C652.759 467.982 641.321 456.615 622.897 447.407Z" fill="#F3F6F8"/>
<path d="M534.809 532.652C501.217 532.652 469.608 526.1 445.796 514.207C427.49 505.063 415.271 493.442 410.446 480.609C410.268 480.142 410.268 479.621 410.446 479.154C415.265 466.32 427.49 454.699 445.796 445.556C469.608 433.663 501.217 427.11 534.809 427.11C568.401 427.11 600.01 433.663 623.821 445.556C642.127 454.699 654.347 466.32 659.172 479.154C659.35 479.621 659.35 480.142 659.172 480.609C654.353 493.442 642.127 505.063 623.821 514.207C600.01 526.1 568.395 532.652 534.809 532.652ZM414.614 479.881C419.255 491.437 430.658 502.012 447.655 510.504C470.904 522.12 501.856 528.513 534.815 528.513C567.773 528.513 598.731 522.12 621.974 510.504C638.972 502.012 650.374 491.437 655.01 479.881C650.368 468.325 638.966 457.751 621.974 449.258C598.725 437.643 567.773 431.25 534.815 431.25C501.856 431.25 470.904 437.643 447.655 449.258C430.658 457.751 419.255 468.325 414.614 479.881Z" fill="#AACFEA"/>
<path d="M546.792 472.565C552.345 475.339 552.345 479.833 546.792 482.613C541.239 485.387 532.24 485.387 526.686 482.613C521.133 479.839 521.133 475.345 526.686 472.565C532.24 469.791 541.239 469.791 546.792 472.565Z" fill="#F3F6F8"/>
<path d="M536.74 486.759C532.625 486.759 528.724 485.943 525.758 484.458C521.14 482.152 520.447 479.159 520.447 477.586C520.447 476.013 521.14 473.021 525.758 470.714C528.724 469.23 532.625 468.414 536.74 468.414C540.855 468.414 544.75 469.23 547.722 470.714C552.34 473.021 553.033 476.013 553.033 477.586C553.033 479.159 552.34 482.152 547.722 484.458C544.756 485.943 540.855 486.759 536.74 486.759ZM536.74 472.553C533.306 472.553 529.979 473.234 527.611 474.416C525.722 475.363 524.592 476.545 524.592 477.586C524.592 478.627 525.722 479.816 527.611 480.756C529.979 481.939 533.306 482.619 536.74 482.619C540.174 482.619 543.495 481.939 545.869 480.756C547.758 479.81 548.889 478.627 548.889 477.586C548.889 476.545 547.758 475.357 545.869 474.416C543.501 473.234 540.174 472.553 536.74 472.553Z" fill="#AACFEA"/>
<path d="M593.404 491.922C601.58 496.008 601.58 502.626 593.404 506.713C585.228 510.8 571.978 510.8 563.802 506.713C555.626 502.626 555.626 496.008 563.802 491.922C571.978 487.835 585.228 487.835 593.404 491.922Z" fill="#AACFEA"/>
<path d="M578.602 511.846C572.694 511.846 567.111 510.681 562.872 508.564C558.183 506.222 555.596 502.934 555.596 499.32C555.596 495.707 558.183 492.419 562.872 490.077C567.105 487.959 572.694 486.794 578.602 486.794C584.511 486.794 590.094 487.959 594.333 490.077C599.027 492.419 601.609 495.701 601.609 499.32C601.609 502.94 599.027 506.222 594.333 508.564C590.1 510.681 584.511 511.846 578.602 511.846ZM578.602 490.928C573.327 490.928 568.401 491.94 564.731 493.773C561.563 495.358 559.746 497.375 559.746 499.314C559.746 501.254 561.563 503.277 564.731 504.856C568.401 506.689 573.327 507.701 578.602 507.701C583.877 507.701 588.803 506.689 592.474 504.856C595.641 503.271 597.459 501.254 597.459 499.314C597.459 497.375 595.641 495.352 592.474 493.773C588.803 491.94 583.877 490.928 578.602 490.928Z" fill="#AACFEA"/>
<path d="M563.802 504.152C562.997 504.554 562.274 504.986 561.623 505.429C562.268 505.879 562.997 506.305 563.802 506.707C571.978 510.787 585.228 510.787 593.404 506.707C594.209 506.305 594.931 505.873 595.582 505.429C594.937 504.98 594.209 504.554 593.404 504.152C585.228 500.065 571.978 500.065 563.802 504.152Z" fill="#F3F6F8"/>
<path d="M578.603 511.846C572.694 511.846 567.111 510.681 562.872 508.564C562.002 508.126 561.185 507.647 560.445 507.133C559.882 506.748 559.551 506.11 559.551 505.429C559.551 504.749 559.882 504.116 560.445 503.726C561.185 503.212 562.002 502.733 562.872 502.301C567.111 500.184 572.694 499.019 578.603 499.019C584.511 499.019 590.094 500.184 594.333 502.301C595.209 502.739 596.026 503.218 596.766 503.732C597.323 504.116 597.66 504.755 597.66 505.435C597.66 506.115 597.329 506.748 596.766 507.139C596.026 507.647 595.209 508.132 594.339 508.564C590.1 510.681 584.517 511.846 578.608 511.846H578.603ZM565.98 505.435C569.485 506.908 573.908 507.706 578.603 507.706C583.297 507.706 587.72 506.908 591.225 505.435C587.72 503.963 583.297 503.164 578.603 503.164C573.908 503.164 569.485 503.963 565.98 505.435Z" fill="#AACFEA"/>
<path d="M506.966 447.271C515.142 451.358 515.142 457.975 506.966 462.062C498.79 466.149 485.54 466.149 477.364 462.062C469.188 457.981 469.188 451.358 477.364 447.271C485.54 443.184 498.79 443.184 506.966 447.271Z" fill="#AACFEA"/>
<path d="M492.165 467.195C486.256 467.195 480.673 466.03 476.434 463.913C471.745 461.571 469.158 458.283 469.158 454.67C469.158 451.056 471.745 447.768 476.434 445.426C480.667 443.309 486.256 442.144 492.165 442.144C498.073 442.144 503.656 443.309 507.895 445.426C512.59 447.768 515.171 451.05 515.171 454.67C515.171 458.289 512.59 461.571 507.895 463.913C503.662 466.03 498.073 467.195 492.165 467.195ZM492.165 446.277C486.89 446.277 481.964 447.289 478.293 449.122C475.126 450.707 473.308 452.724 473.308 454.664C473.308 456.603 475.126 458.626 478.293 460.205C481.964 462.038 486.89 463.05 492.165 463.05C497.44 463.05 502.366 462.038 506.036 460.205C509.204 458.62 511.021 456.603 511.021 454.664C511.021 452.724 509.204 450.701 506.036 449.122C502.366 447.289 497.44 446.277 492.165 446.277Z" fill="#AACFEA"/>
<path d="M477.364 459.501C476.559 459.903 475.837 460.335 475.186 460.778C475.831 461.228 476.559 461.654 477.364 462.056C485.54 466.137 498.79 466.137 506.966 462.056C507.771 461.654 508.494 461.222 509.145 460.778C508.499 460.329 507.771 459.903 506.966 459.501C498.79 455.414 485.54 455.414 477.364 459.501Z" fill="#F3F6F8"/>
<path d="M492.165 467.195C486.256 467.195 480.674 466.03 476.435 463.913C475.564 463.475 474.747 462.996 474.007 462.482C473.445 462.097 473.113 461.459 473.113 460.779C473.113 460.098 473.445 459.466 474.007 459.075C474.747 458.561 475.564 458.082 476.435 457.65C480.674 455.533 486.256 454.368 492.165 454.368C498.074 454.368 503.656 455.533 507.895 457.65C508.772 458.088 509.589 458.567 510.329 459.081C510.885 459.466 511.223 460.104 511.223 460.784C511.223 461.465 510.891 462.097 510.329 462.488C509.589 462.996 508.772 463.481 507.901 463.913C503.662 466.03 498.079 467.195 492.171 467.195H492.165ZM479.543 460.784C483.048 462.257 487.47 463.055 492.165 463.055C496.86 463.055 501.282 462.257 504.787 460.784C501.282 459.312 496.86 458.513 492.165 458.513C487.47 458.513 483.048 459.312 479.543 460.784Z" fill="#AACFEA"/>
<path d="M389.507 589.853C389.507 599.652 381.556 603.621 371.745 598.724C361.935 593.821 353.984 581.91 353.984 572.111C353.984 562.311 361.935 558.343 371.745 563.24C381.556 568.142 389.507 580.053 389.507 589.853Z" fill="#F3F6F8"/>
<path d="M379.679 602.888C376.878 602.888 373.894 602.107 370.816 600.569C360.212 595.27 351.912 582.768 351.912 572.105C351.912 564.186 356.583 559.064 363.812 559.064C366.612 559.064 369.596 559.845 372.675 561.383C383.278 566.682 391.579 579.184 391.579 589.847C391.579 597.766 386.907 602.888 379.679 602.888ZM363.812 563.204C358.957 563.204 356.056 566.528 356.056 572.105C356.056 581.183 363.51 592.29 372.675 596.867C375.138 598.097 377.559 598.748 379.685 598.748C384.539 598.748 387.44 595.424 387.44 589.847C387.44 580.769 379.986 569.662 370.822 565.085C368.359 563.855 365.937 563.204 363.818 563.204H363.812Z" fill="#AACFEA"/>
<path d="M124.178 940C143.887 926.8 161.708 914.558 169.665 908.277C189.841 892.35 215.18 867.624 176.485 825.516L86.377 940H124.184H124.178Z" fill="#F3F6F8"/>
<path d="M367.043 584.708C366.487 583.708 365.226 583.347 364.225 583.897C362.491 584.855 189.877 680.409 131.893 716.082C108.063 730.743 98.549 740.17 97.9511 749.709C97.2051 761.668 110.804 772.585 133.343 790.676C141.022 796.838 149.719 803.823 159.31 811.99C183.027 832.199 194.897 850.745 194.589 867.115C194.275 883.929 181.807 896.053 168.386 906.651C160.168 913.138 141.158 926.161 120.454 940H127.89C146.646 927.415 163.353 915.906 170.955 909.903C184.495 899.211 198.384 885.78 198.733 867.198C199.071 849.278 187.053 830.194 162.003 808.85C152.371 800.641 143.644 793.639 135.942 787.459C114.451 770.208 101.474 759.793 102.089 749.976C102.581 742.08 111.846 733.286 134.071 719.613C191.978 683.987 364.504 588.487 366.244 587.523C367.245 586.967 367.606 585.707 367.055 584.708H367.043Z" fill="#AACFEA"/>
<path d="M375.588 579.976C372.42 574.263 365.215 572.193 359.49 575.363C357.75 576.327 184.94 671.981 126.767 707.773C103.66 721.984 89.1487 733.86 88.1955 749.1C87.1299 766.103 102.221 778.215 127.217 798.282C134.842 804.403 143.48 811.34 152.964 819.418C174.047 837.379 185.059 853.814 184.816 866.932C184.579 879.694 173.863 889.884 162.318 898.998C152.686 906.603 127.744 923.482 102.837 940H145.345C159.181 930.597 170.862 922.411 177.007 917.556C192.341 905.45 208.071 890.02 208.497 867.375C208.894 846.351 195.757 824.776 168.339 801.416C158.595 793.113 149.809 786.063 142.059 779.842C131.278 771.189 122.759 764.353 117.318 758.681C111.853 752.986 111.824 750.804 111.836 750.573C111.924 749.148 114.162 743.31 139.188 727.91C196.899 692.402 369.235 597.009 370.97 596.051C376.689 592.887 378.761 585.689 375.588 579.97V579.976Z" fill="#AACFEA"/>
<path d="M377.404 578.977C374.953 574.559 370.288 571.809 365.226 571.809C362.882 571.809 360.555 572.412 358.495 573.554C356.766 574.512 183.963 670.16 125.688 706.011C102.019 720.571 87.1468 732.837 86.1344 748.97C85.0036 767.044 100.408 779.41 125.925 799.896C133.533 806.005 142.159 812.931 151.625 820.992C172.222 838.539 182.98 854.412 182.749 866.896C182.524 878.795 172.181 888.577 161.039 897.377C151.081 905.243 124.794 922.991 99.1 940.006H106.589C130.644 924.032 154.242 908.023 163.608 900.63C175.55 891.203 186.639 880.599 186.893 866.979C187.154 853.217 175.887 836.226 154.313 817.851C144.805 809.749 136.156 802.806 128.518 796.679C104.044 777.032 89.2722 765.175 90.2668 749.236C91.1667 734.883 105.316 723.41 127.855 709.541C186.052 673.738 358.767 578.131 360.496 577.179C361.94 576.381 363.575 575.955 365.22 575.955C368.779 575.955 372.052 577.883 373.775 580.988C375.042 583.271 375.338 585.902 374.622 588.41C373.9 590.917 372.248 592.993 369.951 594.259C362.84 598.198 195.087 691.101 138.097 726.16C125.375 733.984 110.13 744.553 109.763 750.455C109.674 751.892 110.651 754.737 115.819 760.124C121.355 765.89 129.916 772.763 140.803 781.504C148.529 787.707 157.291 794.739 166.989 803.007C193.903 825.942 206.803 846.984 206.424 867.352C206.016 889.139 190.676 904.143 175.721 915.948C169.239 921.069 156.551 929.922 141.662 940.012H149.021C161.803 931.294 172.495 923.772 178.291 919.194C194.003 906.787 210.125 890.937 210.569 867.429C210.977 845.748 197.603 823.647 169.683 799.861C159.938 791.557 151.152 784.502 143.355 778.245C132.633 769.64 124.161 762.839 118.815 757.268C114.789 753.075 114.049 751.082 113.925 750.638C114.15 749.828 116.506 744.316 140.276 729.69C197.183 694.679 364.853 601.823 371.975 597.878C375.226 596.08 377.582 593.123 378.606 589.557C379.631 585.991 379.204 582.236 377.404 578.989V578.977Z" fill="#AACFEA"/>
<path d="M1167.93 88.5961C1165.75 90.5063 1163.67 92.3397 1161.75 94.0725C1122.7 129.226 1089.69 138.079 1060.84 121.141C1048.74 114.038 1038.75 106.699 1029.94 100.223C1017.32 90.9499 1006.43 82.9422 993.907 78.8615C979.574 74.1894 965.093 75.3545 948.344 82.5223C922.732 93.487 787.31 167.401 781.561 170.541C775.824 173.676 773.717 180.861 776.849 186.592C778.998 190.525 783.059 192.748 787.251 192.748C789.169 192.748 791.117 192.281 792.923 191.299C794.32 190.537 933.099 114.789 957.68 104.262C981.563 94.037 992.332 101.944 1015.91 119.272C1025.18 126.085 1035.69 133.809 1048.84 141.527C1072.3 155.301 1097.94 156.891 1125.04 146.252C1138.91 140.799 1153.03 132.147 1167.94 119.946V88.5961H1167.93Z" fill="#AACFEA"/>
<path d="M787.25 194.824C782.153 194.824 777.475 192.05 775.03 187.591C773.248 184.332 772.84 180.577 773.888 177.017C774.936 173.457 777.304 170.511 780.566 168.731C786.32 165.585 921.855 91.6179 947.526 80.6237C957.94 76.1645 967.442 74 976.589 74C982.693 74 988.572 74.9462 994.552 76.8979C1007.38 81.0791 1018.4 89.1814 1031.17 98.561C1039.94 105.007 1049.88 112.311 1061.89 119.361C1070.98 124.695 1080.62 127.398 1090.57 127.398C1111.47 127.398 1134.3 115.996 1160.36 92.5346C1162.23 90.855 1164.32 89.0039 1166.57 87.0346C1167.18 86.5023 1168.05 86.3722 1168.79 86.7093C1169.53 87.0464 1170 87.7797 1170 88.5959V119.958C1170 120.579 1169.72 121.165 1169.24 121.561C1154.13 133.933 1139.92 142.644 1125.79 148.192C1113.82 152.899 1101.95 155.283 1090.54 155.283C1075.69 155.283 1061.3 151.261 1047.79 143.324C1034.55 135.547 1023.99 127.794 1014.69 120.952C998.435 109.005 988.619 101.796 976.565 101.796C971.213 101.796 965.471 103.186 958.497 106.172C934.075 116.628 795.314 192.358 793.922 193.121C791.88 194.239 789.577 194.824 787.256 194.824H787.25ZM976.589 78.1398C968.017 78.1398 959.047 80.1979 949.16 84.4265C923.667 95.3438 788.304 169.222 782.549 172.362C780.258 173.61 778.594 175.68 777.86 178.182C777.126 180.684 777.41 183.321 778.665 185.61C780.382 188.744 783.668 190.69 787.25 190.69C788.872 190.69 790.488 190.276 791.927 189.49C793.324 188.727 932.263 112.897 956.857 102.37C964.364 99.1584 970.621 97.6562 976.56 97.6562C989.975 97.6562 1000.78 105.599 1017.14 117.616C1026.37 124.4 1036.83 132.088 1049.89 139.758C1062.75 147.311 1076.43 151.143 1090.53 151.143C1101.43 151.143 1112.78 148.854 1124.27 144.336C1137.76 139.037 1151.37 130.739 1165.86 118.976V93.1793C1164.9 94.025 1163.99 94.8352 1163.13 95.6099C1136.28 119.781 1112.54 131.532 1090.57 131.538C1079.88 131.538 1069.52 128.64 1059.79 122.927C1047.6 115.765 1037.57 108.396 1028.72 101.891C1016.24 92.7239 1005.47 84.805 993.267 80.8307C987.708 79.021 982.255 78.1398 976.595 78.1398H976.589Z" fill="#AACFEA"/>
<path d="M844.73 217.215C844.73 184.244 817.97 144.147 784.964 127.658C767.57 118.971 751.91 118.574 740.987 124.967L679.475 158.855L763.26 285.54L826.223 251.167C827.549 250.564 828.81 249.872 830.018 249.097C839.176 243.183 844.724 232.236 844.724 217.227L844.73 217.215Z" fill="#F3F6F8"/>
<path d="M763.265 287.604C762.59 287.604 761.933 287.272 761.537 286.675L677.746 159.99C677.426 159.511 677.325 158.914 677.461 158.352C677.598 157.79 677.965 157.311 678.474 157.033L739.986 123.146C745.214 120.088 751.383 118.521 758.269 118.521C766.924 118.521 776.213 120.969 785.887 125.801C819.473 142.579 846.796 183.587 846.796 217.209C846.796 232.366 841.236 244.301 831.142 250.818C829.869 251.64 828.531 252.374 827.152 253.006L764.254 287.343C763.94 287.515 763.597 287.598 763.259 287.598L763.265 287.604ZM682.44 159.576L763.94 282.801L825.228 249.34C825.275 249.316 825.317 249.292 825.364 249.275C826.584 248.719 827.768 248.074 828.892 247.347C828.898 247.347 828.91 247.335 828.916 247.335C837.773 241.598 842.657 230.906 842.657 217.215C842.657 185.001 816.359 145.655 784.04 129.509C774.952 124.967 766.279 122.667 758.274 122.667C752.129 122.667 746.671 124.039 742.041 126.753L682.446 159.582L682.44 159.576Z" fill="#AACFEA"/>
<path d="M783.774 250.759C783.774 283.73 757.014 297.096 724.008 280.601C691.002 264.113 664.242 224.016 664.242 191.045C664.242 158.074 691.002 144.708 724.008 161.203C757.014 177.691 783.774 217.788 783.774 250.759Z" fill="#F3F6F8"/>
<path d="M750.703 289.739C742.047 289.739 732.753 287.29 723.079 282.458C689.492 265.68 662.17 224.672 662.17 191.051C662.17 167.371 675.964 152.071 697.313 152.071C705.969 152.071 715.264 154.52 724.938 159.351C758.524 176.13 785.846 217.138 785.846 250.759C785.846 274.439 772.052 289.739 750.703 289.739ZM697.307 156.205C678.19 156.205 666.308 169.553 666.308 191.045C666.308 223.259 692.607 262.605 724.926 278.75C734.019 283.292 742.687 285.599 750.697 285.599C769.814 285.599 781.696 272.251 781.696 250.759C781.696 218.545 755.398 179.199 723.079 163.054C713.985 158.512 705.318 156.205 697.307 156.205Z" fill="#AACFEA"/>
<path d="M818.982 266.768C818.982 218.51 779.819 159.819 731.503 135.683C713.629 126.753 697.005 123.808 683.157 126.085H683.145L683.11 126.091C678.965 126.777 675.07 127.924 671.464 129.527L659.387 133.087L662.501 134.885C650.927 143.922 644.029 159.115 644.029 179.365C644.029 227.623 683.193 286.314 731.509 310.45C742.153 315.766 752.348 318.96 761.785 320.196L764.142 324.921L783.371 319.344C784.94 318.972 786.461 318.528 787.947 318.02L788.072 317.984V317.972C806.981 311.39 818.982 293.476 818.982 266.768Z" fill="#AACFEA"/>
<path d="M764.136 326.991C763.366 326.991 762.638 326.559 762.283 325.844L760.412 322.094C750.827 320.699 740.798 317.404 730.579 312.301C706.898 300.467 684.643 280.158 667.924 255.1C651.175 230.007 641.951 203.11 641.951 179.365C641.951 160.327 647.8 145.134 658.895 135.199L658.345 134.879C657.628 134.465 657.226 133.661 657.326 132.845C657.427 132.023 658.001 131.337 658.795 131.106L670.748 127.581C674.466 125.943 678.498 124.76 682.731 124.056C682.766 124.051 682.808 124.045 682.849 124.039C685.922 123.536 689.148 123.282 692.44 123.282C704.962 123.282 718.413 126.83 732.432 133.832C756.114 145.666 778.368 165.975 795.087 191.033C811.836 216.126 821.06 243.023 821.06 266.768C821.06 293.34 809.344 312.691 788.912 319.877C788.829 319.912 788.747 319.942 788.658 319.971L788.581 319.995C787.059 320.515 785.484 320.977 783.904 321.349L764.722 326.914C764.532 326.967 764.337 326.997 764.141 326.997L764.136 326.991ZM664.265 133.803C664.437 134.081 664.543 134.4 664.561 134.737C664.608 135.423 664.312 136.086 663.768 136.511C652.205 145.536 646.09 160.357 646.09 179.359C646.09 226.837 684.82 284.812 732.42 308.593C742.621 313.69 752.585 316.902 762.04 318.138C762.721 318.226 763.319 318.652 763.626 319.267L765.213 322.449L782.785 317.357C782.82 317.345 782.85 317.339 782.885 317.333C784.365 316.985 785.84 316.553 787.266 316.062C787.29 316.056 787.314 316.044 787.332 316.038C787.349 316.032 787.373 316.026 787.391 316.015C806.146 309.48 816.904 291.53 816.904 266.762C816.904 219.284 778.173 161.309 730.573 137.529C717.134 130.816 704.304 127.416 692.434 127.416C689.361 127.416 686.348 127.652 683.488 128.125C683.477 128.125 683.465 128.125 683.459 128.125C683.459 128.125 683.453 128.125 683.447 128.125C679.498 128.776 675.745 129.882 672.305 131.408C672.222 131.443 672.139 131.473 672.05 131.502L664.265 133.797V133.803Z" fill="#AACFEA"/>
<path d="M803.904 271.535C803.904 319.794 764.741 339.352 716.425 315.216C668.114 291.081 628.945 232.39 628.945 184.132C628.945 135.873 668.109 116.315 716.425 140.45C764.735 164.586 803.904 223.277 803.904 271.535Z" fill="#F3F6F8"/>
<path d="M755.505 327.624C742.983 327.624 729.526 324.07 715.501 317.067C691.819 305.233 669.565 284.924 652.846 259.867C636.097 234.773 626.873 207.876 626.873 184.131C626.873 167.063 631.71 152.799 640.863 142.881C649.82 133.17 662.437 128.037 677.35 128.037C689.872 128.037 703.329 131.591 717.354 138.593C741.035 150.427 763.29 170.736 780.009 195.794C796.758 220.887 805.982 247.784 805.982 271.529C805.982 288.597 801.145 302.862 791.992 312.78C783.035 322.491 770.418 327.624 755.505 327.624ZM677.35 132.176C648.772 132.176 631.023 152.083 631.023 184.131C631.023 231.609 669.754 289.585 717.354 313.365C730.799 320.083 743.634 323.484 755.505 323.484C784.082 323.484 801.832 303.577 801.832 271.529C801.832 224.051 763.101 166.076 715.501 142.295C702.056 135.577 689.22 132.176 677.35 132.176Z" fill="#AACFEA"/>
<path d="M764.136 273.937C764.136 235.336 732.811 188.39 694.163 169.086C673.797 158.914 655.468 158.447 642.68 165.934L627.334 174.102L725.429 322.42L742.467 313.679C744.018 312.975 745.498 312.165 746.908 311.254C757.629 304.329 764.124 291.513 764.124 273.937H764.136Z" fill="#AACFEA"/>
<path d="M725.434 324.49C724.759 324.49 724.102 324.159 723.705 323.561L625.611 175.243C625.291 174.758 625.19 174.155 625.333 173.593C625.475 173.025 625.854 172.552 626.369 172.274L641.679 164.124C647.788 160.558 654.94 158.749 662.921 158.749C672.997 158.749 683.826 161.605 695.098 167.235C734.309 186.823 766.213 234.691 766.213 273.936C766.213 291.554 759.76 305.423 748.05 312.993C746.564 313.951 744.995 314.808 743.385 315.542L726.387 324.259C726.085 324.413 725.76 324.49 725.44 324.49H725.434ZM630.323 174.858L726.139 319.729L741.526 311.834C741.526 311.834 741.585 311.804 741.614 311.792C743.053 311.136 744.462 310.373 745.788 309.515C756.285 302.738 762.063 290.105 762.063 273.936C762.063 236.098 731.189 189.898 693.239 170.937C682.547 165.597 672.346 162.888 662.921 162.888C655.668 162.888 649.209 164.515 643.733 167.72C643.709 167.732 643.686 167.75 643.662 167.762L630.323 174.858Z" fill="#AACFEA"/>
<path d="M749.448 281.708C749.448 320.309 718.123 335.951 679.475 316.648C640.832 297.344 609.502 250.399 609.502 211.798C609.502 173.197 640.827 157.554 679.475 176.857C718.117 196.161 749.448 243.107 749.448 281.708Z" fill="#F3F6F8"/>
<path d="M710.728 326.991C700.652 326.991 689.823 324.135 678.545 318.505C639.335 298.917 607.43 251.049 607.43 211.803C607.43 198.047 611.337 186.539 618.726 178.525C625.972 170.671 636.167 166.52 648.215 166.52C658.292 166.52 669.12 169.376 680.398 175.006C719.615 194.594 751.514 242.462 751.514 281.707C751.514 295.464 747.606 306.972 740.218 314.986C732.971 322.84 722.776 326.991 710.728 326.991ZM648.221 170.659C625.617 170.659 611.58 186.426 611.58 211.797C611.58 249.636 642.455 295.836 680.404 314.797C691.096 320.137 701.303 322.851 710.734 322.851C733.338 322.851 747.375 307.085 747.375 281.707C747.375 243.869 716.501 197.669 678.551 178.708C667.859 173.368 657.652 170.659 648.221 170.659Z" fill="#AACFEA"/>
<path d="M721.801 276.592C721.801 270.199 716.608 262.416 710.208 259.222C706.265 257.253 700.694 259.435 700.694 259.435L638.785 290.916L655.06 315.477L718.799 282.867C720.664 281.743 721.801 279.584 721.801 276.592Z" fill="#F3F6F8"/>
<path d="M655.06 317.546C654.385 317.546 653.728 317.215 653.331 316.618L637.05 292.057C636.724 291.566 636.624 290.957 636.772 290.389C636.92 289.821 637.311 289.342 637.837 289.07L699.747 257.59C699.806 257.56 699.871 257.531 699.93 257.507C700.055 257.46 702.979 256.33 706.271 256.33C708.112 256.33 709.746 256.679 711.132 257.371C718.277 260.937 723.872 269.382 723.872 276.592C723.872 280.229 722.451 283.085 719.87 284.641C719.829 284.664 719.787 284.688 719.746 284.712L656.007 317.322C655.705 317.475 655.385 317.552 655.066 317.552L655.06 317.546ZM641.792 291.708L655.764 312.791L717.78 281.063C719.385 280.057 719.728 278.082 719.728 276.592C719.728 271.009 714.944 263.9 709.278 261.073C708.473 260.671 707.467 260.47 706.271 260.47C704.051 260.47 701.949 261.18 701.523 261.333L641.786 291.708H641.792Z" fill="#AACFEA"/>
<path d="M659.003 308.752C659.003 315.145 653.81 317.741 647.41 314.542C641.011 311.342 635.818 303.565 635.818 297.172C635.818 290.779 641.011 288.183 647.41 291.382C653.81 294.582 659.003 302.359 659.003 308.752Z" fill="#AACFEA"/>
<path d="M652.591 317.978C650.649 317.978 648.594 317.446 646.487 316.387C639.341 312.821 633.746 304.376 633.746 297.166C633.746 291.649 637.156 287.935 642.23 287.935C644.172 287.935 646.226 288.467 648.334 289.525C655.474 293.092 661.075 301.537 661.075 308.746C661.075 314.264 657.664 317.978 652.591 317.978ZM642.236 292.08C639.477 292.08 637.896 293.937 637.896 297.172C637.896 302.755 642.68 309.864 648.346 312.691C649.855 313.442 651.324 313.844 652.597 313.844C655.355 313.844 656.936 311.987 656.936 308.752C656.936 303.169 652.153 296.06 646.487 293.234C644.977 292.482 643.509 292.08 642.236 292.08Z" fill="#AACFEA"/>
<path d="M665.314 225.229C665.314 218.835 660.122 211.053 653.722 207.859C649.779 205.89 644.208 208.072 644.208 208.072L582.299 239.552L598.574 264.113L662.313 231.503C664.177 230.38 665.314 228.221 665.314 225.229Z" fill="#F3F6F8"/>
<path d="M598.579 266.189C597.904 266.189 597.247 265.858 596.851 265.26L580.57 240.699C580.244 240.209 580.143 239.599 580.291 239.032C580.439 238.464 580.83 237.985 581.357 237.713L643.266 206.232C643.325 206.203 643.391 206.173 643.45 206.15C643.574 206.102 646.499 204.973 649.791 204.973C651.632 204.973 653.266 205.322 654.651 206.014C661.791 209.58 667.392 218.025 667.392 225.234C667.392 228.871 665.971 231.728 663.39 233.283C663.348 233.307 663.307 233.331 663.265 233.354L599.527 265.964C599.225 266.118 598.905 266.195 598.585 266.195L598.579 266.189ZM585.306 240.345L599.278 261.428L661.294 229.699C662.898 228.694 663.242 226.719 663.242 225.228C663.242 219.645 658.458 212.537 652.792 209.71C651.987 209.308 650.98 209.107 649.785 209.107C647.564 209.107 645.463 209.816 645.036 209.97L585.3 240.345H585.306Z" fill="#AACFEA"/>
<path d="M602.522 257.389C602.522 263.782 597.33 266.378 590.93 263.178C584.53 259.979 579.338 252.202 579.338 245.809C579.338 239.416 584.53 236.819 590.93 240.019C597.33 243.218 602.522 250.995 602.522 257.389Z" fill="#AACFEA"/>
<path d="M596.104 266.615C594.162 266.615 592.108 266.082 590 265.024C582.86 261.458 577.26 253.012 577.26 245.803C577.26 240.285 580.67 236.571 585.744 236.571C587.686 236.571 589.74 237.104 591.848 238.162C598.993 241.728 604.588 250.174 604.588 257.383C604.588 262.901 601.178 266.615 596.104 266.615ZM585.75 240.717C582.991 240.717 581.41 242.574 581.41 245.809C581.41 251.392 586.194 258.501 591.859 261.327C593.369 262.079 594.837 262.481 596.11 262.481C598.869 262.481 600.45 260.624 600.45 257.389C600.45 251.806 595.666 244.697 590 241.87C588.491 241.119 587.022 240.717 585.75 240.717Z" fill="#AACFEA"/>
</g>
</g>
<defs>
<clipPath id="clip0_569_2111">
<rect width="917" height="829" fill="white"/>
</clipPath>
<clipPath id="clip1_569_2111">
<rect width="1170" height="866" fill="white" transform="translate(0 74)"/>
</clipPath>
</defs>
</svg>
