<svg width="16" height="21" viewBox="0 0 16 21" fill="none" xmlns="http://www.w3.org/2000/svg">
<g clip-path="url(#clip0_550_648)">
<path d="M14.2303 18.8916V4.75916C14.2303 4.57606 14.4349 4.27465 14.5877 4.16197C15.1699 3.73662 15.9395 4.11127 15.9972 4.80141V19.6127C15.9741 20.0859 15.6743 20.4549 15.1786 20.4972H2.58841C1.29999 20.3817 0.115342 19.593 0.00292969 18.2521V3.19577C0.109577 1.60986 1.48446 0.65493 3.00923 0.5H12.1463C12.5182 0.550704 12.8064 0.826761 12.8784 1.18451L12.8612 16.9197C12.717 17.2718 12.423 17.5225 12.0195 17.5366H2.59417C2.02058 17.6155 1.32017 18.1113 1.98311 18.6211C2.10417 18.7141 2.49041 18.8916 2.63165 18.8916H14.2303Z" fill="#D0DCE4"/>
</g>
<defs>
<clipPath id="clip0_550_648">
<rect width="16" height="20" fill="white" transform="translate(0 0.5)"/>
</clipPath>
</defs>
</svg>
